<svg width="24" height="24" viewBox="0 0 24 24" fill="none" xmlns="http://www.w3.org/2000/svg">
<path d="M11.9999 13.4L7.09993 18.3C6.91659 18.4833 6.68326 18.575 6.39993 18.575C6.11659 18.575 5.88326 18.4833 5.69993 18.3C5.51659 18.1167 5.42493 17.8833 5.42493 17.6C5.42493 17.3167 5.51659 17.0833 5.69993 16.9L10.5999 12L5.69993 7.09999C5.51659 6.91665 5.42493 6.68332 5.42493 6.39999C5.42493 6.11665 5.51659 5.88332 5.69993 5.69999C5.88326 5.51665 6.11659 5.42499 6.39993 5.42499C6.68326 5.42499 6.91659 5.51665 7.09993 5.69999L11.9999 10.6L16.8999 5.69999C17.0833 5.51665 17.3166 5.42499 17.5999 5.42499C17.8833 5.42499 18.1166 5.51665 18.2999 5.69999C18.4833 5.88332 18.5749 6.11665 18.5749 6.39999C18.5749 6.68332 18.4833 6.91665 18.2999 7.09999L13.3999 12L18.2999 16.9C18.4833 17.0833 18.5749 17.3167 18.5749 17.6C18.5749 17.8833 18.4833 18.1167 18.2999 18.3C18.1166 18.4833 17.8833 18.575 17.5999 18.575C17.3166 18.575 17.0833 18.4833 16.8999 18.3L11.9999 13.4Z" fill="#181C24"/>
</svg>
