<svg width="24" height="24" viewBox="0 0 24 24" fill="none" xmlns="http://www.w3.org/2000/svg">
<path d="M11.9495 13.7833L14.8495 16.6833C15.0328 16.8666 15.2661 16.9583 15.5495 16.9583C15.8328 16.9583 16.0661 16.8666 16.2495 16.6833C16.4328 16.5 16.5245 16.2666 16.5245 15.9833C16.5245 15.7 16.4328 15.4666 16.2495 15.2833L13.3495 12.3833L16.2495 9.4833C16.4328 9.29997 16.5245 9.06663 16.5245 8.7833C16.5245 8.49997 16.4328 8.26663 16.2495 8.0833C16.0661 7.89997 15.8328 7.8083 15.5495 7.8083C15.2661 7.8083 15.0328 7.89997 14.8495 8.0833L11.9495 10.9833L9.04946 8.0833C8.86613 7.89997 8.6328 7.8083 8.34946 7.8083C8.06613 7.8083 7.8328 7.89997 7.64946 8.0833C7.46613 8.26663 7.37446 8.49997 7.37446 8.7833C7.37446 9.06663 7.46613 9.29997 7.64946 9.4833L10.5495 12.3833L7.64946 15.2833C7.46613 15.4666 7.37446 15.7 7.37446 15.9833C7.37446 16.2666 7.46613 16.5 7.64946 16.6833C7.8328 16.8666 8.06613 16.9583 8.34946 16.9583C8.6328 16.9583 8.86613 16.8666 9.04946 16.6833L11.9495 13.7833ZM11.9495 22.3833C10.5661 22.3833 9.26613 22.1208 8.04946 21.5958C6.8328 21.0708 5.77446 20.3583 4.87446 19.4583C3.97446 18.5583 3.26196 17.5 2.73696 16.2833C2.21196 15.0666 1.94946 13.7666 1.94946 12.3833C1.94946 11 2.21196 9.69997 2.73696 8.4833C3.26196 7.26663 3.97446 6.2083 4.87446 5.3083C5.77446 4.4083 6.8328 3.6958 8.04946 3.1708C9.26613 2.6458 10.5661 2.3833 11.9495 2.3833C13.3328 2.3833 14.6328 2.6458 15.8495 3.1708C17.0661 3.6958 18.1245 4.4083 19.0245 5.3083C19.9245 6.2083 20.637 7.26663 21.162 8.4833C21.687 9.69997 21.9495 11 21.9495 12.3833C21.9495 13.7666 21.687 15.0666 21.162 16.2833C20.637 17.5 19.9245 18.5583 19.0245 19.4583C18.1245 20.3583 17.0661 21.0708 15.8495 21.5958C14.6328 22.1208 13.3328 22.3833 11.9495 22.3833Z" fill="#181C24"/>
</svg>
