<svg width="24" height="24" viewBox="0 0 24 24" fill="none" xmlns="http://www.w3.org/2000/svg">
<path d="M11.2875 20.55C11.5292 20.6333 11.7667 20.675 12 20.675C12.2333 20.675 12.4708 20.6333 12.7125 20.55C12.9542 20.4667 13.1667 20.3333 13.35 20.15L15.05 18.6C16.85 16.9833 18.4583 15.375 19.875 13.775C21.2917 12.175 22 10.4167 22 8.5C22 6.93333 21.475 5.625 20.425 4.575C19.375 3.525 18.0667 3 16.5 3C15.6167 3 14.7833 3.1875 14 3.5625C13.2167 3.9375 12.55 4.45 12 5.1C11.45 4.45 10.7833 3.9375 10 3.5625C9.21667 3.1875 8.38333 3 7.5 3C5.93333 3 4.625 3.525 3.575 4.575C2.525 5.625 2 6.93333 2 8.5C2 10.4167 2.7125 12.1708 4.1375 13.7625C5.5625 15.3542 7.15833 16.9583 8.925 18.575L10.65 20.15C10.8333 20.3333 11.0458 20.4667 11.2875 20.55Z" fill="#181C24"/>
</svg>
