<svg width="24" height="24" viewBox="0 0 24 24" fill="none" xmlns="http://www.w3.org/2000/svg">
<path d="M11.7695 7.23828C9.26953 7.23828 7.27734 9.26953 7.27734 11.7305C7.27734 14.2305 9.26953 16.2227 11.7695 16.2227C14.2305 16.2227 16.2617 14.2305 16.2617 11.7305C16.2617 9.26953 14.2305 7.23828 11.7695 7.23828ZM11.7695 14.6602C10.168 14.6602 8.83984 13.3711 8.83984 11.7305C8.83984 10.1289 10.1289 8.83984 11.7695 8.83984C13.3711 8.83984 14.6602 10.1289 14.6602 11.7305C14.6602 13.3711 13.3711 14.6602 11.7695 14.6602ZM17.4727 7.08203C17.4727 6.49609 17.0039 6.02734 16.418 6.02734C15.832 6.02734 15.3633 6.49609 15.3633 7.08203C15.3633 7.66797 15.832 8.13672 16.418 8.13672C17.0039 8.13672 17.4727 7.66797 17.4727 7.08203ZM20.4414 8.13672C20.3633 6.73047 20.0508 5.48047 19.0352 4.46484C18.0195 3.44922 16.7695 3.13672 15.3633 3.05859C13.918 2.98047 9.58203 2.98047 8.13672 3.05859C6.73047 3.13672 5.51953 3.44922 4.46484 4.46484C3.44922 5.48047 3.13672 6.73047 3.05859 8.13672C2.98047 9.58203 2.98047 13.918 3.05859 15.3633C3.13672 16.7695 3.44922 17.9805 4.46484 19.0352C5.51953 20.0508 6.73047 20.3633 8.13672 20.4414C9.58203 20.5195 13.918 20.5195 15.3633 20.4414C16.7695 20.3633 18.0195 20.0508 19.0352 19.0352C20.0508 17.9805 20.3633 16.7695 20.4414 15.3633C20.5195 13.918 20.5195 9.58203 20.4414 8.13672ZM18.5664 16.8867C18.293 17.668 17.668 18.2539 16.9258 18.5664C15.7539 19.0352 13.0195 18.918 11.7695 18.918C10.4805 18.918 7.74609 19.0352 6.61328 18.5664C5.83203 18.2539 5.24609 17.668 4.93359 16.8867C4.46484 15.7539 4.58203 13.0195 4.58203 11.7305C4.58203 10.4805 4.46484 7.74609 4.93359 6.57422C5.24609 5.83203 5.83203 5.24609 6.61328 4.93359C7.74609 4.46484 10.4805 4.58203 11.7695 4.58203C13.0195 4.58203 15.7539 4.46484 16.9258 4.93359C17.668 5.20703 18.2539 5.83203 18.5664 6.57422C19.0352 7.74609 18.918 10.4805 18.918 11.7305C18.918 13.0195 19.0352 15.7539 18.5664 16.8867Z" fill="#181C24"/>
</svg>
