<svg width="24" height="26" viewBox="0 0 24 26" fill="none" xmlns="http://www.w3.org/2000/svg">
<g clip-path="url(#clip0_12017_1935)">
<rect y="0.0900879" width="24" height="25.4375" rx="12" fill="#181C24"/>
<path d="M9.50064 12.8088C9.50064 11.3455 10.6196 10.1589 12.0002 10.1589C13.3809 10.1589 14.5004 11.3455 14.5004 12.8088C14.5004 14.2722 13.3809 15.4588 12.0002 15.4588C10.6196 15.4588 9.50064 14.2722 9.50064 12.8088ZM8.14908 12.8088C8.14908 15.0632 9.87324 16.8907 12.0002 16.8907C14.1272 16.8907 15.8514 15.0632 15.8514 12.8088C15.8514 10.5544 14.1272 8.727 12.0002 8.727C9.87324 8.727 8.14908 10.5544 8.14908 12.8088ZM15.1039 8.56516C15.1038 8.75382 15.1565 8.93827 15.2553 9.09518C15.3542 9.2521 15.4947 9.37442 15.6591 9.44669C15.8235 9.51896 16.0045 9.53792 16.1791 9.50119C16.3537 9.46446 16.5141 9.37368 16.64 9.24032C16.7659 9.10697 16.8517 8.93704 16.8865 8.75201C16.9213 8.56699 16.9035 8.37518 16.8355 8.20085C16.7674 8.02652 16.6521 7.87749 16.5042 7.77261C16.3562 7.66773 16.1822 7.61171 16.0042 7.61164H16.0039C15.7653 7.61175 15.5365 7.71224 15.3677 7.89102C15.199 8.06981 15.1041 8.31227 15.1039 8.56516ZM8.97024 19.2793C8.23902 19.244 7.84158 19.1149 7.57746 19.0058C7.2273 18.8614 6.97746 18.6893 6.71478 18.4112C6.4521 18.1332 6.2895 17.8687 6.15378 17.4975C6.05082 17.2177 5.92902 16.7963 5.89578 16.0213C5.85942 15.1834 5.85216 14.9317 5.85216 12.8089C5.85216 10.6861 5.86002 10.4351 5.89578 9.59646C5.92908 8.82144 6.05178 8.4009 6.15378 8.12026C6.2901 7.74912 6.45246 7.48432 6.71478 7.20591C6.9771 6.92749 7.2267 6.75516 7.57746 6.61131C7.84146 6.50218 8.23902 6.37308 8.97024 6.33785C9.7608 6.29932 9.99828 6.29162 12.0002 6.29162C14.0022 6.29162 14.2399 6.29995 15.0311 6.33785C15.7624 6.37315 16.1591 6.5032 16.4239 6.61131C16.7741 6.75516 17.0239 6.92788 17.2866 7.20591C17.5493 7.48394 17.7113 7.74912 17.8476 8.12026C17.9506 8.40007 18.0724 8.82144 18.1056 9.59646C18.142 10.4351 18.1492 10.6861 18.1492 12.8089C18.1492 14.9317 18.142 15.1827 18.1056 16.0213C18.0723 16.7963 17.9499 17.2176 17.8476 17.4975C17.7113 17.8687 17.5489 18.1335 17.2866 18.4112C17.0243 18.689 16.7741 18.8614 16.4239 19.0058C16.1599 19.115 15.7624 19.2441 15.0311 19.2793C14.2406 19.3178 14.0031 19.3255 12.0002 19.3255C9.99738 19.3255 9.76056 19.3178 8.97024 19.2793ZM8.90814 4.90776C8.10972 4.9463 7.56414 5.08048 7.08768 5.27698C6.59424 5.47991 6.17652 5.75216 5.7591 6.19388C5.34168 6.6356 5.08548 7.07904 4.89402 7.60203C4.70862 8.10735 4.58202 8.68529 4.54566 9.53153C4.5087 10.3791 4.50024 10.6501 4.50024 12.8088C4.50024 14.9676 4.5087 15.2386 4.54566 16.0861C4.58202 16.9324 4.70862 17.5103 4.89402 18.0156C5.08548 18.5383 5.34174 18.9822 5.7591 19.4238C6.17646 19.8653 6.59424 20.1372 7.08768 20.3407C7.56504 20.5372 8.10972 20.6714 8.90814 20.7099C9.70824 20.7484 9.96348 20.758 12.0002 20.758C14.037 20.758 14.2927 20.7491 15.0923 20.7099C15.8908 20.6714 16.436 20.5372 16.9128 20.3407C17.4059 20.1372 17.824 19.8655 18.2414 19.4238C18.6588 18.9821 18.9145 18.5383 19.1065 18.0156C19.2919 17.5103 19.4191 16.9324 19.4548 16.0861C19.4912 15.2379 19.4996 14.9676 19.4996 12.8088C19.4996 10.6501 19.4912 10.3791 19.4548 9.53153C19.4185 8.68522 19.2919 8.10703 19.1065 7.60203C18.9145 7.07936 18.6581 6.6363 18.2414 6.19388C17.8246 5.75146 17.4059 5.47991 16.9134 5.27698C16.436 5.08048 15.8908 4.94566 15.0929 4.90776C14.2933 4.86922 14.0376 4.85962 12.0008 4.85962C9.96408 4.85962 9.70824 4.86859 8.90814 4.90776Z" fill="white"/>
</g>
<defs>
<clipPath id="clip0_12017_1935">
<rect width="24" height="25.4375" fill="white" transform="translate(0 0.0900879)"/>
</clipPath>
</defs>
</svg>
