<svg width="24" height="26" viewBox="0 0 24 26" fill="none" xmlns="http://www.w3.org/2000/svg">
<g clip-path="url(#clip0_12017_1845)">
<rect y="0.0900879" width="24" height="25.4375" rx="12" fill="#181C24"/>
<path d="M7.20622 8.77466C8.08747 8.93364 8.85622 8.47656 9.04372 7.68164C9.28747 6.62837 8.59372 5.73409 7.54372 5.75396C6.84997 5.73409 6.30622 6.0918 6.08122 6.68799C5.74372 7.6419 6.26872 8.61568 7.20622 8.77466Z" fill="white"/>
<path d="M18.6625 18.8106C17.875 18.7907 17.1062 18.7907 16.3187 18.8106C16.15 18.8106 16.1125 18.7708 16.1125 18.592V14.1603C16.1125 13.8224 16.0937 13.4846 16 13.1666C15.7187 12.1332 14.5937 11.7556 13.7875 12.4512C13.3562 12.8089 13.1875 13.3057 13.1875 13.9019V18.0753C13.1875 18.1342 13.1854 18.1931 13.1834 18.2527C13.1792 18.3741 13.1749 18.4984 13.1875 18.6317C13.2062 18.7907 13.1312 18.8304 13 18.8106H10.6C10.45 18.8106 10.4125 18.7708 10.4125 18.6118C10.4312 17.3598 10.4312 16.1078 10.4312 14.836C10.4312 13.2859 10.4312 11.7358 10.4125 10.2055C10.4125 10.0267 10.45 9.98695 10.6 9.98695H13C13.15 9.98695 13.1875 10.0267 13.1875 10.1857V11.1992L13.2812 11.0998C14.0125 9.96707 15.0437 9.6491 16.2625 9.84783C17.6687 10.0863 18.5687 11.1197 18.7937 12.7095C18.85 13.0871 18.8687 13.4647 18.8687 13.8423V18.592C18.8687 18.7509 18.8312 18.8106 18.6625 18.8106Z" fill="white"/>
<path d="M8.91247 14.3987V18.5721C8.91247 18.7509 8.87497 18.8106 8.70622 18.8106C8.18122 18.7973 7.65622 18.8017 7.13122 18.8061C6.86884 18.8083 6.6061 18.8106 6.34372 18.8106C6.19372 18.8106 6.15622 18.7708 6.15622 18.6118V10.1857C6.15622 10.0465 6.19372 9.98693 6.34372 9.98693H8.76247C8.93122 9.98693 8.94997 10.0465 8.94997 10.2055C8.91247 11.5966 8.91247 12.9878 8.91247 14.3987Z" fill="white"/>
</g>
<defs>
<clipPath id="clip0_12017_1845">
<rect width="24" height="25.4375" fill="white" transform="translate(0 0.0900879)"/>
</clipPath>
</defs>
</svg>
