<svg width="24" height="24" viewBox="0 0 24 24" fill="none" xmlns="http://www.w3.org/2000/svg">
<path d="M19.5 21.5L18.1 20.1L19.2 19H11.8C11.6 19.6 11.2417 20.0833 10.725 20.45C10.2083 20.8167 9.63333 21 9 21C8.36667 21 7.79583 20.8167 7.2875 20.45C6.77917 20.0833 6.41667 19.6 6.2 19H5C4.16667 19 3.45833 18.7083 2.875 18.125C2.29167 17.5417 2 16.8333 2 16V10H8V7H2V5H15C15.55 5 16.0208 5.19583 16.4125 5.5875C16.8042 5.97917 17 6.45 17 7V17H19.15L18.1 15.95L19.5 14.5L23 18L19.5 21.5ZM10 10H15V7H10V10ZM9 19C9.28333 19 9.52083 18.9042 9.7125 18.7125C9.90417 18.5208 10 18.2833 10 18C10 17.7167 9.90417 17.4792 9.7125 17.2875C9.52083 17.0958 9.28333 17 9 17C8.71667 17 8.47917 17.0958 8.2875 17.2875C8.09583 17.4792 8 17.7167 8 18C8 18.2833 8.09583 18.5208 8.2875 18.7125C8.47917 18.9042 8.71667 19 9 19ZM6.2 17C6.41667 16.4 6.77917 15.9167 7.2875 15.55C7.79583 15.1833 8.36667 15 9 15C9.63333 15 10.2083 15.1833 10.725 15.55C11.2417 15.9167 11.6 16.4 11.8 17H15V12H4V16C4 16.2833 4.09583 16.5208 4.2875 16.7125C4.47917 16.9042 4.71667 17 5 17H6.2Z" fill="#181C24"/>
</svg>
