<svg width="24" height="24" viewBox="0 0 24 24" fill="none" xmlns="http://www.w3.org/2000/svg">
<path d="M2.85005 16.075C2.63338 15.5917 2.45838 15.0917 2.32505 14.575C2.19172 14.0583 2.10005 13.5333 2.05005 13H4.07505C4.12505 13.35 4.19588 13.7 4.28755 14.05C4.37922 14.4 4.49172 14.7417 4.62505 15.075L2.85005 16.075ZM2.05005 11C2.10005 10.4667 2.19172 9.93749 2.32505 9.41249C2.45838 8.88749 2.64172 8.38332 2.87505 7.89999L4.62505 8.89999C4.49172 9.23332 4.37922 9.57499 4.28755 9.92499C4.19588 10.275 4.12505 10.6333 4.07505 11H2.05005ZM6.17505 20.15C5.72505 19.8167 5.30838 19.4542 4.92505 19.0625C4.54172 18.6708 4.18338 18.25 3.85005 17.8L5.60005 16.8C5.83338 17.1 6.07922 17.3792 6.33755 17.6375C6.59588 17.8958 6.87505 18.1417 7.17505 18.375L6.17505 20.15ZM5.62505 7.17499L3.85005 6.17499C4.18338 5.72499 4.54172 5.30832 4.92505 4.92499C5.30838 4.54165 5.72505 4.18332 6.17505 3.84999L7.17505 5.62499C6.89172 5.85832 6.62088 6.10415 6.36255 6.36249C6.10422 6.62082 5.85838 6.89165 5.62505 7.17499ZM11 21.95C10.4667 21.9 9.93755 21.8083 9.41255 21.675C8.88755 21.5417 8.38338 21.3583 7.90005 21.125L8.90005 19.375C9.23338 19.5083 9.57505 19.6208 9.92505 19.7125C10.275 19.8042 10.6334 19.875 11 19.925V21.95ZM8.90005 4.62499L7.90005 2.87499C8.38338 2.64165 8.88755 2.45832 9.41255 2.32499C9.93755 2.19165 10.4667 2.09999 11 2.04999V4.07499C10.6334 4.12499 10.275 4.19582 9.92505 4.28749C9.57505 4.37915 9.23338 4.49165 8.90005 4.62499ZM13 21.95V19.925C13.3667 19.875 13.725 19.8042 14.075 19.7125C14.425 19.6208 14.7667 19.5083 15.1 19.375L16.1 21.125C15.6167 21.3583 15.1125 21.5417 14.5875 21.675C14.0625 21.8083 13.5334 21.9 13 21.95ZM15.1 4.62499C14.7667 4.49165 14.425 4.37915 14.075 4.28749C13.725 4.19582 13.3667 4.12499 13 4.07499V2.04999C13.5334 2.09999 14.0625 2.19165 14.5875 2.32499C15.1125 2.45832 15.6167 2.64165 16.1 2.87499L15.1 4.62499ZM17.825 20.15L16.825 18.375C17.1084 18.1417 17.3792 17.8958 17.6375 17.6375C17.8959 17.3792 18.1417 17.1083 18.375 16.825L20.15 17.825C19.8167 18.275 19.4584 18.6958 19.075 19.0875C18.6917 19.4792 18.275 19.8333 17.825 20.15ZM18.375 7.17499C18.1417 6.89165 17.8959 6.62082 17.6375 6.36249C17.3792 6.10415 17.1084 5.85832 16.825 5.62499L17.825 3.84999C18.275 4.16665 18.6917 4.51665 19.075 4.89999C19.4584 5.28332 19.8084 5.69999 20.125 6.14999L18.375 7.17499ZM19.925 11C19.875 10.6333 19.8042 10.275 19.7125 9.92499C19.6209 9.57499 19.5084 9.23332 19.375 8.89999L21.125 7.87499C21.3417 8.37499 21.5209 8.88749 21.6625 9.41249C21.8042 9.93749 21.9 10.4667 21.95 11H19.925ZM21.125 16.1L19.375 15.1C19.5084 14.7667 19.6209 14.425 19.7125 14.075C19.8042 13.725 19.875 13.3667 19.925 13H21.95C21.9 13.5333 21.8084 14.0625 21.675 14.5875C21.5417 15.1125 21.3584 15.6167 21.125 16.1Z" fill="#181C24"/>
<path d="M7.00006 11V13H9.00006V11H7.00006Z" fill="#181C24"/>
<path d="M11.0001 15V17H13.0001V15H11.0001Z" fill="#181C24"/>
<path d="M11.0001 11V13H13.0001V11H11.0001Z" fill="#181C24"/>
<path d="M11.0001 7V9H13.0001V7H11.0001Z" fill="#181C24"/>
<path d="M15.0001 11V13H17.0001V11H15.0001Z" fill="#181C24"/>
</svg>
