<svg width="24" height="24" viewBox="0 0 24 24" fill="none" xmlns="http://www.w3.org/2000/svg">
<path d="M20 22V7C20 6.45 19.8042 5.97917 19.4125 5.5875C19.0208 5.19583 18.55 5 18 5H17V6.3C17 6.5 16.9333 6.66667 16.8 6.8C16.6667 6.93333 16.5 7 16.3 7H10.7C10.4667 7 10.2792 6.875 10.1375 6.625C9.99583 6.375 9.98333 6.13333 10.1 5.9L12 1.8C12.1167 1.55 12.2875 1.35417 12.5125 1.2125C12.7375 1.07083 13 1 13.3 1H15.6C16 1 16.3333 1.15 16.6 1.45C16.8667 1.75 17 2.1 17 2.5V3H18C19.1 3 20.0417 3.39167 20.825 4.175C21.6083 4.95833 22 5.9 22 7V22H20ZM12.7 5H15V3H13.6L12.7 5ZM5 22C4.15 22 3.4375 21.7125 2.8625 21.1375C2.2875 20.5625 2 19.85 2 19V16.5C2 15.95 2.18333 15.4375 2.55 14.9625C2.91667 14.4875 3.4 14.2 4 14.1V12C4 11.45 4.19583 10.9792 4.5875 10.5875C4.97917 10.1958 5.45 10 6 10H14C14.55 10 15.0208 10.1958 15.4125 10.5875C15.8042 10.9792 16 11.45 16 12V14.1C16.6 14.2 17.0833 14.475 17.45 14.925C17.8167 15.375 18 15.9 18 16.5V19C18 19.85 17.7125 20.5625 17.1375 21.1375C16.5625 21.7125 15.85 22 15 22H5ZM6 12V14.5C6.3 14.75 6.54167 15.0458 6.725 15.3875C6.90833 15.7292 7 16.1 7 16.5V17H13V16.5C13 16.1 13.0917 15.7292 13.275 15.3875C13.4583 15.0458 13.7 14.75 14 14.5V12H6ZM5 20H15C15.3 20 15.5417 19.8958 15.725 19.6875C15.9083 19.4792 16 19.25 16 19V16.5C16 16.35 15.9542 16.2292 15.8625 16.1375C15.7708 16.0458 15.65 16 15.5 16C15.35 16 15.2292 16.0458 15.1375 16.1375C15.0458 16.2292 15 16.35 15 16.5V19H5V16.5C5 16.35 4.95417 16.2292 4.8625 16.1375C4.77083 16.0458 4.65 16 4.5 16C4.35 16 4.22917 16.0458 4.1375 16.1375C4.04583 16.2292 4 16.35 4 16.5V19C4 19.25 4.09167 19.4792 4.275 19.6875C4.45833 19.8958 4.7 20 5 20Z" fill="#181C24"/>
</svg>
