<svg width="24" height="26" viewBox="0 0 24 26" fill="none" xmlns="http://www.w3.org/2000/svg">
<g clip-path="url(#clip0_12017_1839)">
<rect y="0.0900879" width="24" height="25.4375" rx="12" fill="#181C24"/>
<path fill-rule="evenodd" clip-rule="evenodd" d="M17.869 7.58353C18.5115 7.76688 19.0181 8.30381 19.191 8.98479C19.5123 10.2289 19.4999 12.8219 19.4999 12.8219C19.4999 12.8219 19.4999 15.4018 19.191 16.6459C19.0181 17.3268 18.5115 17.8638 17.869 18.0471C16.6952 18.3745 12 18.3745 12 18.3745C12 18.3745 7.31712 18.3745 6.13096 18.034C5.48846 17.8507 4.98188 17.3137 4.8089 16.6328C4.5 15.4018 4.5 12.8088 4.5 12.8088C4.5 12.8088 4.5 10.2289 4.8089 8.98479C4.98188 8.30381 5.50082 7.75378 6.13096 7.57044C7.30477 7.24304 12 7.24304 12 7.24304C12 7.24304 16.6952 7.24304 17.869 7.58353ZM14.4093 12.8088L10.5049 15.1922V10.4253L14.4093 12.8088Z" fill="white"/>
</g>
<defs>
<clipPath id="clip0_12017_1839">
<rect width="24" height="25.4375" fill="white" transform="translate(0 0.0900879)"/>
</clipPath>
</defs>
</svg>
